<svg class="img-fluid" id="outputsvg" xmlns="http://www.w3.org/2000/svg" style="transform: matrix(1.69, 0, 0, 1.69, 0, 0); transform-origin: 50% 50%; cursor: move; max-height: 512.62px; transition: transform 200ms ease-in-out;" width="1024" height="1024" viewBox="0 0 10240 10240"><g id="l1ZzrSN2aiuy8NsBPfudnLW" fill="none" stroke="rgb(254,172,7)" stroke-width="10" style="transform: none;"><g style="transform: none;"><path id="pbapcaAEH" d="M2207 6883 c-4 -3 -7 -179 -7 -390 l0 -383 -305 0 -304 0 -3 110 -3 111 -207 0 c-115 0 -212 -1 -218 -1 -7 0 -10 -190 -10 -550 l0 -550 220 0 220 0 0 110 0 110 305 0 305 0 2 -387 3 -388 330 0 330 0 5 268 5 267 344 -215 344 -215 471 0 471 0 79 -397 c44 -219 83 -408 87 -420 l9 -23 320 0 320 0 0 -320 0 -320 139 0 138 0 6 -197 c7 -256 27 -332 123 -469 117 -167 296 -267 504 -282 l95 -7 3 -53 3 -52 220 0 219 0 0 330 0 330 -220 0 -220 0 0 -56 0 -57 -64 5 c-86 7 -136 36 -186 108 -22 31 -25 47 -27 140 -2 58 -4 140 -6 183 l-2 77 192 0 193 0 0 320 0 320 269 0 c149 0 272 4 275 9 3 4 42 193 87 420 l82 411 471 0 c498 1 623 7 745 40 109 29 263 109 356 184 225 179 357 438 372 727 13 245 -63 480 -218 672 -143 178 -312 285 -550 349 l-84 23 -2337 2 -2337 3 -345 -215 c-189 -118 -345 -215 -347 -215 -2 0 -3 121 -1 270 l3 270 -329 0 c-181 0 -332 -3 -335 -7z m3767 -807 c127 -62 205 -220 177 -358 -34 -164 -187 -279 -353 -266 -156 13 -284 136 -303 292 -13 101 36 223 116 290 70 59 124 76 230 72 59 -2 90 -9 133 -30z m1321 3 c118 -56 187 -168 186 -305 -1 -125 -61 -224 -173 -284 -58 -32 -70 -35 -153 -35 -80 0 -96 3 -148 30 -137 69 -214 229 -176 370 31 117 106 200 218 242 56 21 185 12 246 -18z"></path></g></g></svg>